<?xml version="1.0" encoding="UTF-8" standalone="no"?>
<svg
   height="24px"
   viewBox="0 -960 960 960"
   width="24px"
   fill="#5f6368"
   version="1.1"
   id="svg1"
   sodipodi:docname="logo.svg"
   inkscape:version="1.3.2 (091e20ef0f, 2023-11-25, custom)"
   xmlns:inkscape="http://www.inkscape.org/namespaces/inkscape"
   xmlns:sodipodi="http://sodipodi.sourceforge.net/DTD/sodipodi-0.dtd"
   xmlns="http://www.w3.org/2000/svg"
   xmlns:svg="http://www.w3.org/2000/svg">
  <defs
     id="defs1" />
  <sodipodi:namedview
     id="namedview1"
     pagecolor="#ffffff"
     bordercolor="#000000"
     borderopacity="0.25"
     inkscape:showpageshadow="2"
     inkscape:pageopacity="0.0"
     inkscape:pagecheckerboard="0"
     inkscape:deskcolor="#d1d1d1"
     inkscape:zoom="11.281649"
     inkscape:cx="8.9082725"
     inkscape:cy="14.403923"
     inkscape:window-width="1366"
     inkscape:window-height="703"
     inkscape:window-x="0"
     inkscape:window-y="0"
     inkscape:window-maximized="1"
     inkscape:current-layer="svg1" />
  <rect
     style="fill:#214478;fill-opacity:0.996078;stroke-width:228.875;stroke-linecap:round;stroke-linejoin:round"
     id="rect1"
     width="952.21796"
     height="952.21796"
     x="3.8910217"
     y="-956.10901"
     ry="147.47897" />
  <path
     id="path1"
     style="fill:#ffffff;stroke-width:0.965934"
     d="m 248.18505,-789.11525 c -21.25057,0 -39.46732,7.56701 -54.60032,22.69998 -15.13298,15.133 -22.69998,33.34975 -22.69998,54.60032 v 463.62989 c 1e-5,21.25058 7.567,39.46733 22.69998,54.60033 15.133,15.13298 33.34975,22.69998 54.60032,22.69998 h 463.62989 c 21.25058,-1e-5 39.46733,-7.567 54.60033,-22.69998 15.13297,-15.133 22.69998,-33.34975 22.69998,-54.60033 v -463.62989 c -10e-6,-21.25057 -7.56701,-39.46732 -22.69998,-54.60032 -15.133,-15.13297 -33.34975,-22.69998 -54.60033,-22.69998 h -77.30031 v 347.72241 l -96.5609,-57.95373 -96.56089,57.95373 v -347.72241 z" />
</svg>
